<svg xmlns="http://www.w3.org/2000/svg" width="48" height="29" fill="none" viewBox="0 0 48 29"><g clip-path="url(#a)"><circle cx="23.654" cy="14.5" r="14" fill="#ffd60a"/><path fill="#000" d="M7.14 27.016a9.6 9.6 0 0 1-1.82-.168 4.1 4.1 0 0 1-1.54-.56 2.87 2.87 0 0 1-1.036-1.12q-.364-.7-.364-1.82v-5.992q0-.615-.364-.98a1.94 1.94 0 0 0-.924-.504A3.6 3.6 0 0 0 0 15.704v-2.38q.56 0 1.092-.14.56-.168.924-.532t.364-.952V5.652q0-1.12.364-1.82a2.87 2.87 0 0 1 1.036-1.12q.672-.42 1.54-.56a9.6 9.6 0 0 1 1.82-.168v1.568q-.476 0-1.064.14a2.34 2.34 0 0 0-.98.504q-.392.364-.42 1.092l-.252 6.132q-.056 1.4-.644 2.184t-2.184.784v.252q1.064 0 1.652.364.615.364.868 1.036.28.645.308 1.568l.252 6.104q.028.7.42 1.064.42.392.98.532t1.064.14z"/><path fill="#000" fill-rule="evenodd" d="M28.521 15.744c-1.139-.312-2.388-.518-3.53-.83-.107.105-.107-.106-.107.206 0 .207 3.43 4.454 5.198 6.525a.74.74 0 0 0 .624.307c.832 0 3.215-3.214 3.215-3.83 0-1.551-2.296-1.551-2.907-1.762-.826-.207-1.763-.409-2.493-.616m6.134-1.45c0-1.14-.413-3.316-1.662-4.041l-7.916 3.935 8.003 1.556c1.263-.206 1.575-.418 1.575-1.45m-4.26-9.014a3.9 3.9 0 0 0-1.144-.72c-.312 0-.624.408-.73.62-1.148 2.589-3.949 7.676-3.949 7.87 0 .311 1.038-.208 2.181-.827 1.874-1.038 3.953-1.97 5.717-3.008.105-.1.105-.206.105-.519 0-1.033-.83-2.171-2.18-3.416m-6.342 10.304h-.312v4.247a34 34 0 0 0 .418 4.56c.106.307 1.143.725 1.561.725.831 0 3.324-.919 3.324-2.296a2.15 2.15 0 0 0-.518-1.24c-1.456-1.956-2.6-4.233-4.473-5.996m-.987 8.545-.1-8.49c-.313.105-.419.105-.524.206-1.456 1.864-3.017 3.729-4.592 5.593a5.2 5.2 0 0 0-.83 1.345c0 1.552 4.16 2.594 4.885 2.594a1.18 1.18 0 0 0 1.161-1.248m-1.3-9.436c-.417 0-1.037-.106-1.35-.106l-4.59.414h-1.663c-.725 0-1.35.206-1.35 1.244 0 .519 1.038 5.18 3.012 5.18.212 0 .317 0 .418-.107 1.456-1.657 2.806-3.416 4.261-4.867.418-.518 1.378-1.244 1.378-1.552-.019-.206-.019-.119-.115-.206m.084-.519a.6.6 0 0 0 .293-.027.8.8 0 0 1-.22.027zm-6.057-6.226a1.9 1.9 0 0 0-1.047-.207c-1.138 1.245-1.763 3.416-1.763 4.867s1.561 1.346 2.705 1.346c.312 0 1.868-.101 2.7-.207h3.742v-.312c-2.076-1.759-4.261-3.728-6.337-5.487m6.887 4.67c-.62-3.003-.514-5.699-1.864-8.596-.629 0-1.354 0-1.772.312-.413.202-3.012 1.552-3.012 2.484 0 .313 4.784 4.66 6.547 6.112.226-.211.12-.312.12-.312zm4.44-8.945a23 23 0 0 0-3.742-.413c-.312 0-.624 0-.725.101a.64.64 0 0 0-.418.62L23.7 12.48c.83-.625 1.455-2.489 2.08-3.623.1-.312 1.974-3.522 1.974-4.353 0-.312 0-.312-.105-.413a.7.7 0 0 0-.528-.418M23.586 0A14.5 14.5 0 1 0 38.14 14.496 14.527 14.527 0 0 0 23.585 0m13.003 17.797a24 24 0 0 1-.748 2.061 5.9 5.9 0 0 1-1.01 1.727q-.687.725-1.488 1.322c-.542.46-.822 1.139-1.313 1.644s-1.153.72-1.722 1.074a8.5 8.5 0 0 1-1.662 1.006 29 29 0 0 1-3.898 1.106c-1.346.244-2.93-.123-4.284-.28a9.3 9.3 0 0 1-3.706-1.377 12.4 12.4 0 0 1-3.645-3.035A19.2 19.2 0 0 1 11.1 19.15a7.7 7.7 0 0 1-.52-2.03c-.095-.748-.385-1.294-.504-2.038-.358-2.2.197-4.132 1.083-6.166.271-.625.538-1.258.868-1.837a5.7 5.7 0 0 1 1.254-1.57c.51-.436 1.079-.794 1.588-1.221s.946-.97 1.456-1.41a4.4 4.4 0 0 1 1.726-.863c.67-.184 1.378-.285 2.03-.487s1.377-.505 2.061-.675a8.8 8.8 0 0 1 4.348.243c1.437.336 2.816.88 4.096 1.612.63.381 1.221.822 1.81 1.263 2.864 2.162 3.911 5.969 4.444 9.371a9.74 9.74 0 0 1-.253 4.454" clip-rule="evenodd"/><path fill="#000" d="M40.14 1.984q.98 0 1.82.168.868.14 1.54.56.672.392 1.036 1.12.392.7.392 1.82v5.992q0 .588.364.98.364.364.896.532.56.14 1.12.14v2.38a3.9 3.9 0 0 0-1.12.168 1.94 1.94 0 0 0-.896.504q-.363.364-.364.952v6.048q0 1.12-.392 1.82a2.6 2.6 0 0 1-1.036 1.12q-.672.42-1.54.56a9.3 9.3 0 0 1-1.82.168v-1.568q.503 0 1.064-.14.56-.14.98-.532.42-.364.448-1.064l.252-6.132q.056-1.4.644-2.184t2.184-.784v-.252q-1.065 0-1.68-.364a2.2 2.2 0 0 1-.868-1.008q-.252-.672-.28-1.596l-.252-6.104q-.028-.728-.448-1.092a2.13 2.13 0 0 0-.952-.504 4.5 4.5 0 0 0-1.092-.14z"/></g><defs><clipPath id="a"><path fill="#fff" d="M0 0h47.308v29H0z"/></clipPath></defs></svg>