<svg xmlns="http://www.w3.org/2000/svg" width="52" height="52" fill="none" viewBox="0 0 52 52"><path fill="#111" fill-rule="evenodd" d="M16.834 17.257c-.171-.343.057-.857.057-.857.285-.114.742-.057.913.286.171.4 0 .685-.457.971 0 0-.228-.114-.513-.4m12.668 21.714-2.625 2.115V19.429h2.625zm1.712-1.885V19.429h2.168v13.485c-.4 1.257-1.084 2.629-2.168 4.172m-8.617 2.057 2.625 2.114V19.43h-2.625zm-1.484-1.429V19.43h-2.34v14.4c.058.971 1.77 3.428 2.34 3.885" clip-rule="evenodd"/><path fill="#111" d="M25.964 44.057c-9.93 0-18.032-8.114-18.032-18.057 0-10 8.046-18.057 18.032-18.057 9.929 0 18.032 8.114 18.032 18.057s-8.103 18.057-18.032 18.057v.629c10.271 0 18.66-8.4 18.66-18.686S36.235 7.314 25.964 7.314 7.304 15.714 7.304 26s8.388 18.686 18.66 18.686z"/><path fill="#111" d="M25.964 51.143C12.097 51.143.856 39.886.856 26S12.097.857 25.964.857C39.83.857 51.072 12.114 51.072 26c0 13.829-11.299 25.143-25.108 25.143v.8c14.323 0 25.964-11.657 25.964-26C51.87 11.657 40.23 0 25.964 0 11.64 0 0 11.657 0 26s11.64 26 25.964 26z"/><path fill="#111" fill-rule="evenodd" d="M4.565 33.314c.57.572.856.915 1.141 1.657.286.629.343 1.086.4 1.772l1.255-.572c-.456-.514-.742-.857-1.027-1.485-.342-.743-.456-1.2-.514-1.943z" clip-rule="evenodd"/><path fill="#111" fill-rule="evenodd" d="M4.45 36.171c.572-.571.914-.857 1.656-1.142.627-.286 1.084-.343 1.769-.4l-.57-1.258c-.514.458-.857.743-1.485 1.029-.684.286-1.14.4-1.94.457zm42.856-2.857c-.571.572-.856.915-1.142 1.657-.285.629-.342 1.086-.4 1.772l-1.312-.572c.457-.514.742-.857 1.028-1.485.285-.743.456-1.2.456-1.943z" clip-rule="evenodd"/><path fill="#111" fill-rule="evenodd" d="M47.363 36.171c-.571-.571-.913-.857-1.655-1.142-.628-.286-1.084-.343-1.77-.4l.571-1.258c.514.458.856.743 1.484 1.029.742.343 1.198.4 1.94.514zM15.807 44c.342-.171.513 0 .57-.114.057-.057 0-.115-.114-.172-.114-.114-.285-.171-.4-.285l-.342-.343c-.057-.057-.171-.172-.228-.057-.114.171.457.342.114.8-.057.057-.171.228-.57.457l-1.712.971c-.057 0-.115.057-.115.057-.057 0 0-.114 0-.171l.628-1.943c.114-.4.228-.629.342-.8.172-.171.343.057.457-.057.057-.057.057-.114-.114-.229-.057-.057-.228-.114-.514-.343-.17-.114-.285-.285-.456-.4-.057-.057-.171-.228-.285-.114v.114c.17.172.17.286.114.515l-1.027 3.6c-.058.285-.058.343 0 .4.056.057.114.057.228-.057zm4.508 1.829c.114-.458.456-.115.513-.343 0-.057 0-.057-.114-.115-.057 0-.171 0-.628-.114-.228-.057-.513-.171-.741-.228-.115 0-.172 0-.229.057-.057.228.628.228.514.685l-.685 2.743c-.171.686-.514.286-.57.572 0 .057 0 .057.113.114q.429.085.685.171c.286.058.57.172 1.427.4.456.115.913-.285 1.027-.742 0-.115 0-.115-.057-.115-.228-.057-.342.743-1.712.4-.4-.114-.342-.285-.228-.685zm3.252.685c.057-.4.057-.4.742-.343 1.084.058.628.743.856.743.114 0 .114-.171.114-.285v-.572a.123.123 0 0 0-.114-.114c-.514-.057-.913-.057-1.312-.057-.857-.057-1.256-.115-1.484-.115-.057 0-.114.058-.114.115 0 .228.627.114.57.628l-.17 2.8c-.058.743-.457.4-.457.629 0 .057.057.057.114.057h.742c.285 0 .627.057 1.483.114.457.057.856-.457.856-.914 0-.114-.057-.114-.057-.114-.228 0-.171.743-1.598.685-.4-.057-.342-.228-.342-.628l.057-.743c0-.343 0-.4.285-.4h.4c.57.057.4.686.57.686.115 0 .115-.229.115-.286l.057-1.086c0-.171-.057-.171-.114-.171-.115 0-.172.514-.628.514h-.343c-.228 0-.228-.057-.228-.343zm3.025 2.915c.057.628-.514.571-.457.8 0 .114.114.057.171.057.171 0 .285-.057.457-.057.17 0 .4 0 .684-.058.058 0 .229 0 .229-.114 0-.286-.685.172-.8-.971l-.17-2c0-.057 0-.115.057-.115 0 0 .057 0 .114.058l2.967 2.857c.057.057.057.057.171.057.057 0 .057-.057.057-.172l-.285-3.314c-.057-.628.457-.514.4-.686 0 0 0-.057-.115-.057-.057 0-.228.057-.627.057-.4.058-.571 0-.628.058-.057 0-.114.057-.057.114 0 .171.685.057.742.571l.17 2v.229c-.056 0-.113-.057-.17-.114l-2.511-2.4c-.114-.115-.057-.172-.228-.115-.286 0-.457.057-.57.057h-.343c-.057 0-.114.058-.114.115 0 .285.627-.172.741.971zm7.018-4.572c0-.057-.057 0-.057 0-.057 0 0 .229-.114.229-.171.057-.685-.172-1.312.057-1.37.4-1.541 1.828-1.256 2.8.114.457.8 1.829 2.397 1.371 1.141-.343 1.484-1.371 1.37-1.6 0-.057-.058-.057-.115-.057-.17.057-.285.914-1.141 1.143-1.027.343-1.826-.686-2.054-1.486-.229-.743-.057-1.714.742-1.943.627-.171 1.255.172 1.712.629.057.057.114.171.228.171.114-.057.057-.171 0-.228zm1.655-.4c-.285-.514.228-.514.114-.686-.057-.057-.057-.057-.228 0-.285.172-.457.286-.628.343-.17.115-.4.172-.57.286-.057 0-.172.057-.114.171.114.172.57-.285.855.229l1.37 2.514c.285.515-.171.572-.057.743 0 0 .057.057.114.057.114-.057.343-.228.57-.343.4-.228.571-.285.8-.4.114-.057.17-.114.114-.171-.114-.171-.514.4-.856-.286zM2.853 23.543c-.342-.172-.285-.343-.4-.4-.113 0-.113.057-.113.171v.4c0 .115-.057.286-.057.4 0 .057-.058.172.057.229.228 0 .057-.457.57-.457.114 0 .286.057.685.228l1.769.857c.057 0 .114.058.114.058 0 .057-.114.057-.114.057l-1.997.457c-.4.057-.685.114-.856.114-.228 0-.114-.286-.286-.343-.114 0-.114 0-.114.172V26c0 .171-.057.343-.057.457 0 .057-.057.229.057.229.057 0 .057-.057.114-.057.058-.172.172-.229.4-.286l3.595-.857c.285-.057.342-.115.342-.172s0-.057-.17-.171zm2.797-.4c.57.114.399.571.627.628.114 0 .114-.057.114-.114.057-.114.057-.286.057-.4l.171-.514c0-.057.057-.172-.057-.172-.285-.057 0 .629-1.141.343l-1.997-.457c-.057 0-.114-.057-.114-.057s.057-.057.114-.057L6.962 20.8a.123.123 0 0 0 .114-.114c0-.057-.057-.057-.171-.115l-3.253-.742c-.628-.115-.4-.515-.57-.572 0 0-.058 0-.115.057 0 .057 0 .229-.114.515-.057.342-.114.457-.171.514 0 .057.057.114.057.114.171.057.228-.571.742-.4l1.94.457c.171.057.228.057.228.057 0 .058-.114.058-.17.115L2.51 21.943c-.114.057-.171 0-.171.171-.057.229-.057.4-.115.515.058.057.058.114 0 .228 0 .057.058.114.058.114.285.058 0-.571 1.14-.285zm-1.541-4.972c-.514-.171-.229-.457-.4-.514-.057 0-.114 0-.114.114a2.3 2.3 0 0 1-.171.572l-.171.514c0 .057-.057.172.057.172.17.057.228-.515.741-.343l2.74.914c.513.171.285.457.456.514.057 0 .057 0 .057-.057.057-.114.057-.343.171-.514l.229-.686c.057-.114 0-.171-.058-.171-.17-.057-.057.514-.798.285zm1.369-3.428c-.285-.286-.171-.4-.285-.457s-.114.057-.171.114c-.057.114-.115.229-.115.4l-.17.343c0 .057-.115.171 0 .228.17.115.17-.457.684-.228.114.057.285.114.57.4l1.37 1.314c.057.057.114.057.114.114h-.114l-1.997-.228c-.4-.057-.685-.114-.799-.172-.228-.114-.057-.342-.171-.4s-.114 0-.171.115c-.114.171-.114.285-.229.571-.057.172-.17.286-.228.457 0 .057-.114.172 0 .229.057 0 .114 0 .114-.057.114-.172.229-.172.457-.172l3.652.343c.285 0 .342 0 .342-.057s0-.057-.114-.171zm.97-1.2c-.342-.229-.342-.229 0-.743.514-.8.856-.057 1.027-.286.057-.114-.114-.171-.17-.228L6.79 12q-.087-.085-.172 0c-.228.343-.4.629-.57.914-.4.629-.628.857-.685 1.029-.057.057 0 .114.057.171.114.172.285-.4.742-.114l2.34 1.543c.627.4.114.514.399.686.057 0 .057 0 .114-.058.171-.228.228-.4.342-.514.115-.228.286-.457.685-1.028.228-.343-.057-.858-.456-1.086l-.114-.057c-.115.171.57.514-.058 1.543-.17.285-.342.171-.684-.058l-.628-.4c-.285-.171-.342-.228-.228-.4l.17-.285c.286-.4.743.057.8-.115.057-.114-.114-.171-.171-.228l-.913-.572q-.172-.086-.172 0c-.057.058.4.4.172.743l-.172.229c-.114.171-.17.171-.342 0zM12.44 11.2c.114.114.114.114.228.057.285-.114.514-.171.742-.343.456-.4.456-1.085-.057-1.714-.514-.571-.913-.571-1.484-.457-.742.171-.97.228-1.198-.057-.285-.286-.228-.629 0-.8.628-.515 1.37.285 1.484.228.057-.057.057-.114-.058-.228l-.57-.572c-.114-.114-.114-.171-.171-.114s-.057.171-.114.229c-.115.114-.4.057-.685.285-.457.343-.4.972.057 1.486.4.457.742.457 1.198.4.856-.171 1.141-.286 1.484.057.285.343.285.743 0 1.029-.4.343-.97.114-1.484-.229-.057-.057-.114-.057-.171-.057-.114.057.057.171.114.229zm.628-4.514c-.343-.457.114-.515 0-.686-.058-.057-.058-.057-.172.057-.228.172-.342.286-.513.4-.114.114-.286.172-.457.286-.057 0-.114.057-.057.171.114.172.457-.285.8.172l1.654 2.343c.342.457-.057.514.057.685l.057.057c.114-.057.285-.228.4-.342.285-.229.456-.286.627-.4.114-.058.114-.115.057-.172-.114-.171-.4.4-.799-.228zm16.548-3.6c.057-.286.171-.343.342-.343.742.114.628.971.57 1.143-.056.171-.17.8-.74.685-.115 0-.172-.057-.23-.057-.056 0-.056.057-.056.115 0 0 0 .171.456.228.57.114 1.084-.286 1.199-1.028.17-.858-.4-1.258-.97-1.372-.343-.057-.685-.114-.742-.114-.343 0-.628-.057-.628-.057-.114 0-.171.057-.171.114-.057.229.513.057.4.686l-.457 2.571c-.114.743-.457.514-.514.686 0 .114.057.114.057.114.057 0 .4.057.57.057.115 0 .286.057.629.115.057 0 .114.057.114-.058.057-.228-.457-.057-.343-.8zm3.994.285c-1.084-.342-1.997.343-2.453 1.6-.4 1.143-.058 2.115.856 2.458 1.426.514 2.168-.8 2.453-1.6.4-1.258 0-2.172-.856-2.458m.229 2.458c-.343.914-.856 1.6-1.598 1.371-.8-.286-.685-1.543-.4-2.343s.8-1.543 1.541-1.257c.57.114.913.971.457 2.229m2.396-.743c.229-.4.4-.057.514-.286.057-.057 0-.057-.057-.114s-.114-.057-.514-.229c-.171-.057-.4-.228-.57-.343q-.172-.086-.172 0c-.114.172.457.286.229.743L34.352 7.43c-.342.628-.513.171-.628.457 0 .057 0 .057.058.114.228.114.399.171.57.286.228.114.457.285 1.084.571.343.172.8-.114 1.028-.571.056-.115.056-.115 0-.115-.172-.057-.457.629-1.484.115-.285-.172-.171-.343 0-.686zm2.568 1.6c.342-.457.514-.115.628-.286.057-.057 0-.057-.114-.171-.229-.172-.4-.229-.514-.343a3 3 0 0 0-.456-.343c-.058 0-.115-.114-.172 0-.114.171.4.343.114.8l-1.597 2.4c-.343.457-.514.171-.628.343 0 0-.057.057 0 .114.114.057.285.171.456.286.286.228.457.343.571.4s.114.057.171 0c.114-.172-.513-.229-.057-.857zm-.171 3.371c-.457.572-.685 0-.856.172-.057.114 0 .171.057.228.171.114.285.172.514.4.228.172.342.286.513.457.114.057.171.172.285.057.115-.114-.456-.342-.057-.971l1.655-2.114c.171-.229.228-.229.4-.115l.342.229c.457.343-.057.743.057.857.114.057.171-.114.228-.228l.286-.458c.057-.057.057-.114.057-.171-.343-.286-.628-.457-1.142-.857-.57-.457-.798-.629-1.14-.914-.058-.058-.115 0-.172.057l-.57.571c-.058.057-.172.172-.058.229.172.114.514-.572.97-.229l.343.229c.171.114.171.171 0 .4zm4.108 0c.286-.286.343-.286.685.172.628.685-.114.857 0 1.028.057.057.228-.057.286-.114l.399-.4q.086-.085 0-.172a10 10 0 0 1-.742-.8c-.513-.514-.685-.8-.856-.971q-.086-.086-.171 0c-.171.171.342.4-.057.8l-2.054 1.886c-.514.514-.571 0-.742.171 0 0-.057.057 0 .114l.456.458c.171.171.343.4.856.914.286.286.8.171 1.142-.172.057-.057.057-.114.057-.114-.114-.114-.628.457-1.484-.4-.228-.228-.057-.4.228-.628l.57-.515c.23-.228.286-.285.457-.114l.229.286c.342.343-.229.685-.114.8.056.057.228-.057.285-.115l.742-.742c.114-.115.057-.172.057-.172-.057-.057-.457.286-.742 0l-.228-.228c-.114-.172-.114-.172.057-.343zm3.538 3.714v-.057c-.057-.057-.228.057-.228 0-.057-.114 0-.628-.285-1.085-.685-.972-2.054-.686-2.853-.115-.4.286-1.541 1.315-.742 2.457.57.858 1.598.743 1.769.629.057 0 .057-.057 0-.114-.057-.115-.913.057-1.313-.572-.513-.743.229-1.714.97-2.228.685-.457 1.598-.572 1.94 0 .286.457.115 1.085-.228 1.6a.43.43 0 0 0-.114.228c.057.057.171 0 .171-.057z" clip-rule="evenodd"/><path fill="#111" fill-rule="evenodd" d="M43.882 16.171c-.57.286-.628-.228-.856-.114-.114.057 0 .114 0 .172l.17.342c.058.172.115.286.23.515 0 .057.056.171.17.114.229-.114-.4-.514.685-.971l1.826-.858c.057 0 .114-.057.114 0 0 0 0 .058-.057.115l-1.883 3.371c0 .057-.057.114 0 .172q0 .085.171 0l3.025-1.429c.57-.286.627.171.799.114 0 0 .057-.057.057-.114s-.114-.171-.229-.457c-.114-.286-.17-.457-.228-.514 0-.058-.114-.058-.114 0-.171.057.171.571-.342.8l-1.826.857h-.229s.057-.115.057-.229L47.02 15.2c.057-.114.114-.114.057-.229l-.228-.457c0-.057-.057-.114-.057-.228 0-.057-.057-.057-.114-.057-.285.114.342.457-.742.914zm4.279 3.143c.514-.171.457.229.628.172.057 0 .057-.057.057-.172-.057-.285-.171-.4-.228-.571-.057-.172-.057-.343-.171-.514 0-.058-.057-.172-.114-.115-.172.057.114.515-.4.686l-2.739.857c-.513.172-.513-.228-.685-.114-.057 0-.057.057-.057.057q.085.172.172.514c.114.343.17.515.228.686.057.114.057.114.114.114.171-.057-.228-.457.456-.685z" clip-rule="evenodd"/><path fill="#111" fill-rule="evenodd" d="M49.417 22.857c.057 0 .057-.057 0-.057 0-.057-.228-.057-.228-.114 0-.172.285-.572.17-1.143-.227-1.2-1.597-1.429-2.567-1.257-.457.057-1.94.571-1.712 1.943.171 1.028 1.141 1.371 1.37 1.314.057 0 .057-.057.057-.057 0-.115-.856-.286-.97-1.029-.172-.914.913-1.486 1.769-1.6.798-.114 1.654.114 1.826.8.114.572-.343 1.029-.856 1.372-.058.057-.172.114-.172.171s.172.057.229 0zM15.293 37.886c-.171.114-.171.114-.342-.115-.286-.4.114-.457 0-.514-.058-.057-.115 0-.115.057l-.228.172s-.057.057 0 .057c.114.171.228.286.343.457.228.286.342.457.399.514 0 .057.057.057.057 0 .114-.057-.171-.228.057-.4l1.027-.8c.286-.228.286.057.343-.057V37.2c-.057-.114-.171-.171-.229-.229-.057-.114-.17-.228-.399-.514-.114-.171-.4-.171-.57 0l-.058.057c.057.057.343-.171.685.343.114.172 0 .172-.114.286l-.171.228c-.114.115-.171.115-.229.058l-.114-.172c-.17-.228.114-.343.057-.4s-.114 0-.114.057l-.4.286c-.056.057-.056.057 0 .057.058.057.23-.114.343.057l.114.115c.057.057.057.114-.057.171z" clip-rule="evenodd"/><path fill="#111" fill-rule="evenodd" d="M15.75 36.171c.17 0 .285.115.285.058.057 0 0-.058-.057-.115l-.171-.171c-.058-.057-.058-.114-.172-.229l-.057-.057c-.057.057.114.172 0 .286-.057 0-.114.057-.228.057h-.456s0-.057.057-.114l.17-.4c0-.057.058-.115.115-.172s.114.057.228 0c.057 0 0-.057 0-.057a.8.8 0 0 1-.171-.228.7.7 0 0 0-.114-.172h-.171c-.057.057.057.114-.057.4l-.229.686c-.057.057-.057.114-.057.114h-.684c-.343 0-.4-.171-.457-.114 0 0-.057.057 0 .057a.8.8 0 0 0 .171.229c.057.057.057.114.171.228 0 0 0 .057.058 0 .056-.057-.058-.171 0-.228.056-.058.114-.058.228-.058h.456v.058l-.228.457c0 .057-.057.057-.057.057-.057.057-.171-.057-.228 0 0 0-.057 0 0 .057s.057.114.228.229c.114.171.171.228.171.285s.057.057.057 0c.057-.057-.114-.114.114-.571l.229-.514c0-.058.057-.115.057-.172h.114zm7.532-25.542a.572.572 0 0 1 0 1.142.572.572 0 0 1 0-1.142m-5.079 1.142a.572.572 0 0 1 0 1.143.57.57 0 0 1-.57-.571c.057-.343.285-.572.57-.572" clip-rule="evenodd"/><path fill="#111" d="M34.923 13.886c-.114.343-.286.4-.8.285-.456-.057-.456-.685-.399-.914l-.741-.228c-.343.628-.685.685-1.027.628-.514-.057-.571-.971-.514-1.486L30.643 12c-.4 1.086-.57 1.2-1.027 1.314-.285.057-.457-.114-.57-.228-.172-.172-.286-.4-.286-.629 0-.114.057-.228.057-.343L28.075 12c-.057.114-.057.286-.057.4-.057.286-.228.571-.4.686a.35.35 0 0 1-.399.057c-.4-.114-.856-.4-.856-1.886h-.799v.114c0 1.086-.285 1.6-.856 1.772-.17.057-.285 0-.456-.114a1.56 1.56 0 0 1-.4-.743v-.343l-.798.057v.343c0 .286-.114.571-.343.743q-.256.257-.513.171c-.457-.114-.685-.286-1.085-1.371l-.741.171c.057.572 0 1.486-.514 1.543-.285.057-.628 0-.97-.743l-.742.286c.057.514-.171.971-.456 1.086-.514.114-.514.114-.742-.286l-.057-.114-.685.4.057.114c.342.628.628.914 1.598.628.456-.114.742-.457.913-.857q.514.429 1.198.343c.4-.057.8-.286 1.027-.971.286.285.57.514 1.027.571s.856-.057 1.199-.4a1.2 1.2 0 0 0 .228-.286c.057.115.171.172.228.229.343.286.742.343 1.142.229.513-.172.855-.458 1.084-.8.228.4.57.685 1.027.8.4.114.742.057 1.084-.229.114-.057.171-.171.285-.286.057.057.114.115.114.172.343.4.8.571 1.313.457.456-.057.742-.286 1.027-.572.228.686.742.858 1.084.915s.8 0 1.199-.286c.17.4.513.686.913.8.4.057 1.255.229 1.712-.743z"/><path fill="#111" fill-rule="evenodd" d="M28.475 10.629a.572.572 0 0 1 0 1.142.572.572 0 0 1 0-1.142m5.135 1.028c.286 0 .57.229.57.572s-.227.571-.57.571a.57.57 0 0 1-.57-.571c0-.343.228-.572.57-.572m-15.35 5.029.57-.572.743.286-.57.571z" clip-rule="evenodd"/><path fill="#111" d="M16.948 16.229c3.424-1.086 5.42-1.429 9.016-1.372 3.652 0 5.65.343 9.073 1.372 0 0 .285.057.4-.286.114-.343-.172-.457-.172-.457-3.424-1.086-5.592-1.429-9.301-1.429-3.652 0-5.82.343-9.244 1.429 0 0-.286.114-.172.457.057.343.4.286.4.286m.685 2.171c.285-.057.627-.114.97-.229 1.711-.4 3.766-.857 7.304-.857 2.91 0 4.907.4 7.418.915l.913.171s.285.057.342-.286a.406.406 0 0 0-.228-.457l-.913-.171c-2.568-.515-4.565-.915-7.59-.915-3.594 0-5.763.515-7.475.915-.342.057-.627.171-.97.228 0 0-.285.115-.228.457.171.286.457.229.457.229"/><path fill="#111" fill-rule="evenodd" d="m22.825 15.829.685-.515.742.4-.685.457zM35.037 17.2c.171-.343-.057-.857-.057-.857-.285-.057-.8-.057-.913.343-.114.4 0 .685.456.971-.057-.057.229-.114.514-.457m-1.427-.514-.57-.572-.742.286.57.571zm-4.622-.857-.628-.515-.741.4.684.457zm2.796.4c.057-.4-.4-.686-.97-.8-.57-.115-1.141.057-1.198.457s.342.685.97.8c.57.057 1.141-.057 1.198-.457m7.419 1.942c.114-.057.17-.057.228.058.228.342-.171.571-.228.628-.058.057-.343.172-.514-.057-.057-.057-.057-.114-.057-.114h-.057s-.057.057.057.285c.171.229.456.343.799.172.342-.229.342-.572.171-.857-.114-.172-.171-.286-.228-.343a3 3 0 0 1-.172-.286l-.057-.057c-.114.057.172.229-.114.4l-1.084.686c-.342.171-.342 0-.456.057-.057 0 0 .057 0 .057s.114.171.17.286c.058.057.058.171.172.285 0 .058 0 .058.057.058.114-.058-.114-.229.171-.4zm2.339 6.229c.057 0 .114 0 .114-.057s-.057-.057-.114-.057c0-.057.171-.286.114-.629-.057-.628-.742-.8-1.255-.743-.228.057-.97.229-.856.972.057.285.228.514.4.743H40c.057 0 .114 0 .229-.058.4-.057.228.115.342.115.057 0 .057 0 .057-.057 0-.058-.057-.172-.057-.286s0-.229-.057-.343c0-.057 0-.114-.057-.114-.114 0 .114.285-.343.343-.17 0-.399.057-.456-.4-.057-.4.456-.629.856-.686.742-.114.97.171.97.4.114.628-.57.743-.514.8 0 .057 0 .057.058.057zm-.228 2.8c.228 0 .228.057.171.343-.057.457-.4.228-.4.343 0 .057.115.057.115.057h.285s.057 0 .057-.057c0-.229.057-.4.057-.572.057-.4.057-.571.057-.628s0-.057-.057-.057c-.114 0-.057.285-.342.228l-1.37-.171c-.342-.057-.17-.229-.285-.229 0 0-.057 0-.057.057v.343c0 .114-.057.286-.057.629 0 .228.228.4.456.4h.057c0-.115-.4-.115-.285-.743 0-.172.114-.172.285-.114l.4.057c.171 0 .228 0 .171.114v.171c0 .286-.342.172-.342.229s.114.057.114.057l.513.057c.057 0 .057 0 .057-.057s-.285-.114-.228-.286V27.2c0-.114.057-.114.171-.114zm-1.655.857c-.057 0-.114 0-.114.057-.057.115-.171.229-.171.4-.057.343.17.572.513.686.343.057.514-.057.685-.286.228-.285.285-.4.514-.4.17.057.285.172.228.343-.057.4-.628.343-.628.4s0 .057.114.057l.4.057h.114c0-.057-.057-.114 0-.114 0-.057.171-.171.171-.343.057-.285-.171-.514-.456-.571s-.457.057-.571.228c-.285.343-.343.515-.57.458-.229-.058-.343-.229-.286-.4.057-.286.342-.343.628-.4.057 0 .057 0 .057-.058 0-.057-.057-.057-.114-.057h-.514zm-.285 1.257c-.057 0-.114 0-.114.057-.057.115-.172.229-.229.343-.114.286.057.629.457.743.342.114.513 0 .742-.228.285-.286.342-.4.513-.343s.285.228.228.343c-.114.4-.684.285-.684.342s0 .058.057.058l.4.114c.056 0 .113.057.113 0v-.114c0-.058.172-.115.229-.343.114-.286-.057-.515-.4-.629-.285-.114-.456 0-.627.172-.343.342-.4.457-.628.4-.228-.058-.286-.286-.228-.458.114-.285.399-.342.684-.342.057 0 .057 0 .057-.058 0-.057-.057-.057-.114-.057zm.913 2.115c.285.114.114.228.17.285.058 0 .058 0 .058-.057.057-.114.057-.228.114-.286s.057-.171.114-.285c0 0 .057-.057 0-.115-.114-.057-.114.229-.342.172l-1.313-.457c-.285-.115-.114-.229-.228-.286h-.057c0 .057-.057.171-.057.286-.057.171-.114.285-.114.343v.114c.114.057.057-.286.4-.172z" clip-rule="evenodd"/><path fill="#111" fill-rule="evenodd" d="M39.488 31.429c-.57-.229-1.027 0-1.199.457-.285.743.343 1.143.742 1.257.57.228 1.084 0 1.256-.457.114-.572-.229-1.086-.8-1.257m.627 1.142c-.114.286-.513.458-1.14.229-.457-.171-.8-.457-.628-.857.17-.4.798-.343 1.198-.229.4.172.742.457.57.857" clip-rule="evenodd"/><path fill="#111" d="M17.975 37.886a2.2 2.2 0 0 0-.285-.686 10 10 0 0 0-.856-1.2l-.114-.114.456-.515.057-.057.114-.057V35.2l-.228-.4c-.285-.457-.514-.8-.799-1.371-.4-.858-.57-1.372-.799-2.286l-.285.057-.799.229c-1.198-3.086-1.54-5.772-1.027-8.229l1.712.743.228.114.057-.228.799-3.029.057-.114h-.057l-.114-.115-.742-.4.342-1.428.114-.114-.17-.115-3.31-2.114-.114.171-.172-.114c-1.826 2.572-2.853 5.714-2.91 8.972-.114 3.371.799 6.571 2.625 9.314l.114.171.171-.114 1.028-.629c.057.172.228.458.342.629.057.114.114.171.171.286l-.97.628.114.172h-.171l.114.171c.628 1.086 2.169 3.714 3.71 3.2.456-.171.741-.4 1.026-.628.172-.172.343-.286.571-.458l.114-.057-.057-.171zm-1.484-2.343a5.7 5.7 0 0 1-.627-.972l.913.629zm-1.483-3.886-.171.686c-.058-.172-.172-.343-.229-.514zm.114-8.171-1.598-.686c0-.114.057-.229.114-.343l.97.114h.114l.057-.057.856-1.085zm-1.37-1.372c.343-.914.742-1.828 1.37-2.685l-.628 2.742zM15.75 20.8l-.741.914.228-1.143zm-3.823 13.486a15.26 15.26 0 0 1-2.453-8.915c.057-3.085 1.084-6.114 2.739-8.571l2.967 1.886c-2.967 3.771-3.139 8.343-.628 14zm1.427-.4 1.54-.972.115-.114.228-.971c.171.571.342 1.028.628 1.714.17.4.342.686.57 1.028l-1.084-.742h.057l-.171.114-1.37.914c-.057-.114-.114-.171-.17-.286zm3.766 4.457c-.285.228-.514.4-.913.571-1.255.4-2.74-2.057-3.31-3.028l2.34-1.543c.342.628.856 1.371 1.255 1.886.457.571.57.742.856 1.142.171.229.171.343.286.572a3.2 3.2 0 0 1-.514.4M42.74 25.37c-.057-3.2-1.14-6.4-2.91-8.971l-.171.114-.114-.171-3.31 2.114-.171.114.114.115.343 1.428-.8.457-.17.058h-.058l.057.114.8 3.028.056.229.172-.114 1.711-.743c.514 2.457.229 5.143-.97 8.228l-.741-.171-.286-.057c-.228.857-.4 1.371-.799 2.286-.285.571-.513.914-.799 1.371l-.228.4.171.171.457.515c0 .057-.057.057-.057.114-.4.457-.457.571-.742.857l-.228.229c-.343.228-.514.571-.514.857 0 .171.114.286.286.343.399.171.513.171.57.228.057 0 .114 0 .171.057l.4.058c.628.114.685.114 1.484-.115 1.426-.457 2.282-2.285 2.282-2.4l-.171-.057.114-.171-.685-.4c.114-.172.343-.515.457-.743.114-.229.285-.514.342-.629l1.027.629.171.114.114-.171c1.77-2.743 2.682-5.943 2.625-9.315m-6.162-4.8.228 1.143-.685-.857zm.114-1.142c.57.857 1.027 1.771 1.37 2.685l-.743.115zm0 4.057-.514-2 .856 1.085.057.058h.114l.97-.115c.057.115.057.229.114.343zm.513 8.285c-.057.172-.17.343-.228.515l-.171-.629zm-2.168 3.543.685-.4a7 7 0 0 1-.457.686zm3.31.8c-.229.457-.97 1.715-1.998 2-.684.229-.741.229-1.312.115l-.343-.058c-.114-.057-.17-.057-.17-.057-.058 0-.172-.057-.514-.171-.057 0-.057-.057-.057-.057 0-.115.114-.343.342-.515l.228-.228c.286-.286.4-.4.8-.857.342-.457.627-.743.97-1.372zm-.229-1.543c-.114.229-.342.515-.456.743l-1.37-.857-.17-.114-.971.514c.228-.4.456-.743.685-1.257.285-.686.456-1.143.628-1.714l.228.971.17.114 1.542.972c0 .057-.115.4-.286.628m1.77-.285-2.626-1.6c2.511-5.657 2.34-10.229-.627-14l2.967-1.886c1.712 2.457 2.682 5.486 2.739 8.571.114 3.258-.742 6.286-2.454 8.915"/><path fill="#111" fill-rule="evenodd" d="M27.048 15.714c0-.4-.456-.628-1.084-.628s-1.084.228-1.141.628c0 .4.456.629 1.084.629.628-.057 1.141-.229 1.141-.629m-7.018.515c-.058-.4.399-.686.97-.8.57-.115 1.14.057 1.198.457.057.4-.343.685-.97.8-.628.057-1.142-.057-1.199-.457M13.01 31.6c.286-.171.286.171.4.114.057 0 .057-.057 0-.114-.057-.114-.114-.171-.171-.286-.057-.171-.114-.228-.171-.343-.058-.057-.058-.114-.115-.057s.172.286-.17.457l-1.142.572c-.114.057-.171.057-.171-.057l-.114-.172c-.114-.228.17-.343.114-.4s-.114 0-.171.057l-.057.058-.058.057.343.685.342.686c0 .057.057 0 .057 0l.343-.114c.057 0 .114 0 .057-.057-.057-.115-.343.114-.457-.115l-.114-.171c-.057-.114-.057-.114.057-.171zm-1.94-1.314c-.17.057-.17.057-.285-.229-.114-.457.228-.343.171-.457 0-.057-.114 0-.114 0l-.285.057-.057.057c.057.229.114.4.17.572.115.343.172.571.172.628s.057.057.057.057c.114-.057-.057-.285.171-.342l1.256-.343c.342-.115.228.114.342.114v-.057c-.057-.114-.057-.229-.114-.286-.057-.114-.057-.286-.171-.628-.057-.172-.343-.286-.514-.229-.057 0-.057.057-.057.057 0 .114.343-.057.514.572.057.171-.057.171-.229.228l-.342.114c-.171.058-.171.058-.228-.057l-.057-.171c-.057-.229.228-.286.228-.343s-.114 0-.171 0l-.457.171c-.057 0-.057.058-.057.058 0 .057.286 0 .343.171l.057.171c.057.115 0 .115-.114.172zm-.057-1.372c.286-.057.514-.285.457-.571-.057-.229-.286-.457-.343-.4-.057 0-.057 0-.057.057s.172.114.172.286c.056.228-.229.4-.514.457-.171 0-.4 0-.4-.172 0-.114.058-.171.172-.228 0 0 .057 0 .057-.057s-.171-.172-.171-.172c-.172 0-.172.286-.172.343.114.343.457.514.8.457m-.571-3.143c-.286 0-.172-.171-.286-.171 0 0-.057 0-.057.057v.686c0 .057 0 .057.057.057s0-.286.286-.286h.399c.057 0 .114 0 .114.057v.743c0 .057-.057.057-.114.057h-.457c-.228 0-.17-.171-.228-.171 0 0-.057 0-.057.057v.629c0 .057 0 .114.057.114.114 0 0-.286.286-.286h1.255c.342 0 .228.229.342.229.057 0 .057 0 .057-.057V26.8c0-.057 0-.057-.057-.057-.114 0 0 .286-.342.286h-.457c-.114 0-.17 0-.17-.115v-.685c0-.115.056-.115.17-.115h.514c.285 0 .171.172.285.172 0 0 .057 0 .057-.057v-.686c0-.057 0-.057-.057-.057-.114 0 0 .285-.342.285zm1.312-.742c.285.057.228.285.342.285.058 0 .058-.057.058-.057v-.228c0-.115 0-.172.057-.286v-.114c-.115 0 0 .342-.514.285l-.97-.114h-.057l.057-.057 1.54-1.029.058-.057c0-.057 0-.057-.057-.057l-1.598-.171c-.285-.058-.228-.229-.285-.229 0 0-.057 0-.057.057v.286c0 .171-.058.228-.058.286s0 .057.057.057c.115 0 .058-.286.343-.286l.913.114c.057 0 .114 0 .114.057l-.057.058-1.37.8c-.057.057-.057 0-.057.057v.4c0 .057 0 .057.057.057.114 0 0-.286.514-.229zm-.913-2.858c-.285-.057-.114-.228-.228-.228-.057 0-.057 0-.057.057-.057.114-.057.229-.057.343s-.057.171-.057.286v.114c.114 0 .057-.286.342-.229l1.312.286c.286.057.172.229.229.229h.057c0-.058 0-.172.057-.286.057-.172.057-.286.114-.4v-.114c-.114 0 0 .285-.343.228zm.571-2.342s0 .057 0 0c-.057.057.057.114.057.114 0 .057-.229.171-.343.457-.228.571.229 1.029.685 1.2.228.057.913.229 1.198-.457.172-.514-.114-.914-.228-.914h-.057c0 .057.228.342.114.685-.17.457-.742.457-1.141.286-.342-.114-.628-.457-.514-.8.115-.286.4-.4.685-.4.057 0 .114 0 .114-.057s-.057-.057-.057-.057zm6.163 24.514c0-.172 0-.229-.058-.229-.057-.057-.114.057-.228.115l-3.024 2.514c-.286.228-.514.057-.57.171-.058.057.056.115.113.115.172.057.286.114.457.228.171.057.285.172.456.286.114.057.229.171.286.057.057-.171-.514-.343-.343-.743a1 1 0 0 1 .343-.343c.285-.285.4-.285.513-.228l.97.514c.114.057.114.114.057.629 0 .171-.057.285-.114.4-.17.342-.513.057-.57.228-.058.057.057.114.114.172.17.057.342.171.57.285.343.172.457.286.628.343.114.057.171.114.228 0 .114-.171-.285-.114-.285-.571zm-.8 1.943c0 .057 0 .171-.056.228-.057.057-.115 0-.172-.057l-.684-.343c-.115-.057-.172-.057-.115-.114l.172-.171.856-.743c.057-.057.057-.057.114-.057v.057zm24.709-1.943c-.114-.172-.228.228-.628 0L37.434 42.4c-.172-.114-.172-.114-.229-.057s0 .171 0 .228l1.027 3.772c.115.343-.17.514-.057.628.057.058.114 0 .172-.057a2.5 2.5 0 0 1 .399-.343c.171-.114.285-.171.456-.285.115-.057.286-.172.172-.229-.114-.114-.514.343-.8 0-.113-.114-.17-.343-.17-.457-.115-.4-.057-.457 0-.571l.856-.686c.114-.114.17-.057.627.171.172.115.228.172.343.229.228.286-.114.457 0 .628.057.058.114 0 .17-.057.115-.114.286-.228.457-.4.286-.228.457-.285.571-.457.057-.057.114-.057.057-.114m-2.625-.114-.628.457c-.057.057-.114.114-.17.057-.058-.057-.058-.114-.058-.229l-.285-1.085v-.115h.057l1.027.572c.057.057.114.057.171.114.057.114 0 .114-.114.229m-16.662-33.2-.114-.572c-.058-.228-.286-.343-.514-.343l-.457.172L21 9.77c-.057-.228-.285-.4-.513-.342l-.57.114c-.23.057-.4.286-.343.514l.114.514-.457.115c-.228.057-.4.285-.342.514l.114.571c.057.229.285.343.514.343l2.34-.514c.227-.114.399-.343.342-.571m-1.484.742c-.342.058-.628-.114-.742-.457-.057-.343.114-.628.457-.743.342-.057.627.115.742.458.057.342-.115.628-.457.742m6.39-2.17h-.456v-.514a.39.39 0 0 0-.4-.4h-.57a.39.39 0 0 0-.4.4V9.6h-.514a.39.39 0 0 0-.399.4v.571c0 .229.171.4.4.4h2.396a.39.39 0 0 0 .4-.4V10c-.058-.229-.229-.4-.457-.4m-1.198 1.371a.634.634 0 0 1-.628-.628c0-.343.285-.629.628-.629.342 0 .627.286.627.629-.057.343-.285.628-.627.628m6.676-.285-.456-.115.114-.514c.057-.228-.114-.457-.343-.514l-.57-.114c-.229-.058-.457.114-.514.342l-.114.515-.456-.115c-.229-.057-.457.115-.514.343l-.114.572c-.057.228.114.457.342.514l2.34.514c.228.057.456-.114.513-.343l.114-.571q0-.429-.342-.514m-.742.628c-.057.343-.4.515-.742.457s-.513-.4-.456-.742c.057-.343.4-.515.742-.458.285.058.513.4.456.743m4.737.4c-.172-.114-.457-.057-.571.172l-.285.457-.4-.229c-.171-.114-.456-.057-.57.172l-.286.514c-.114.171-.057.457.171.571l.913.572c.172.114.457.057.571-.172l.285-.457c.114-.228.229-.4.229-.4l.456-.8zm-.97 2c-.286-.171-.4-.514-.229-.8.172-.285.514-.4.8-.228zm-18.204-1.028-.285-.515c-.114-.171-.4-.285-.57-.171l-.4.229-.285-.458c-.115-.171-.4-.285-.571-.171l-.514.4.457.8s.114.171.228.4l.285.457c.115.172.4.286.571.172l.913-.572c.228-.114.285-.4.171-.571m-1.141 1.028-.628-1.028c.286-.172.628-.057.8.228.17.286.113.629-.172.8m-4.051-2.343c-.057-.057-.057-.057-.115 0-.057.058-.057.115-.057.115 0 .057-.057.114-.17.057-.8-.229-1.713-.514-1.713-.514-.057-.058 0-.172 0-.4 0-.172-.114-.458-.4-.686-.227-.172-.912-.686-1.597.114-.228.229-.4.514-.628.743-.17.229-.228.229-.4.4-.056.057-.056.114 0 .114.172.115.343-.4.857.057l1.997 1.715c.57.514.171.628.285.8.114.057.114 0 .172-.057.17-.172.285-.4.456-.572.114-.171.228-.228.285-.286.058-.057.058-.114.058-.171-.172-.171-.286.4-.742-.057l-.8-.572c-.17-.114-.227-.171-.056-.342.17-.172.228-.229.513-.115l.97.343c.343.114.742.229.97-.057.172-.171.286-.457.115-.629M9.53 11.6c-.115.114-.229.229-.343.171l-.913-.8c-.285-.228-.171-.342-.057-.457.342-.343.799-.285 1.256.115.285.171.513.4.057.971m12.211-4.971c-.057-.172-.228.114-.513-.229l-2.34-3.086c-.114-.171-.114-.171-.171-.171s-.057.114-.057.228L18.546 7.2c0 .343-.229.4-.229.514 0 .057.114.057.171 0 .115-.057.286-.114.4-.171.171-.057.285-.057.456-.114.115-.058.229-.058.229-.172-.057-.171-.514.114-.628-.286-.114-.057-.114-.285-.114-.4 0-.4.057-.457.171-.514l.913-.286c.114-.057.171 0 .457.4.114.115.17.229.228.343.114.343-.228.4-.171.572q0 .086.17 0a2.7 2.7 0 0 1 .514-.172c.286-.114.457-.114.571-.171.057 0 .114 0 .057-.114M19.63 5.543l-.628.171c-.057 0-.171.057-.171 0V4.23l.057.057.685.914c.057.057.114.114.114.171.114.115.057.115-.057.172m30.186 19.37c0-.057-.114-.057-.228-.114l-3.71-.914c-.342-.115-.342-.343-.456-.343-.057 0-.057.057-.057.171s.057.286.057.4v.457c0 .115 0 .229.114.229.172 0 0-.514.457-.571.114 0 .342.057.456.057.4.057.457.171.457.228l.114.915c0 .114-.057.171-.513.342-.172.058-.286.115-.4.115-.342.057-.342-.286-.513-.286-.114 0-.058.057-.058.171s.058.286.058.515c.057.343 0 .457.057.628 0 .115 0 .172.114.172.171 0-.057-.229.342-.457l3.538-1.658c.171 0 .171-.057.171-.057m-1.198-.057-1.027.514c-.057.058-.114.058-.228.058-.057 0-.057-.058-.057-.172l-.058-.628c0-.115 0-.172.058-.172.057 0 .17 0 .228.057l1.084.286c.057 0 .057 0 0 .057q.086 0 0 0M41.2 21.543c-.172-.572-.742-.743-1.37-.514-.57.171-.856.628-.685 1.085.229.743.97.686 1.37.572.628-.172.856-.686.685-1.143m-.856.914c-.457.172-.856.114-1.027-.286-.172-.4.4-.742.798-.914.4-.114.8-.114.97.286.115.286-.114.686-.741.914m.056-2.8c-.056-.171-.17-.286-.227-.457-.058-.171-.058-.171-.114-.286 0-.057-.058-.057-.058-.057-.114.057.114.229-.17.4l-1.2.572c-.342.171-.342-.058-.399 0-.057 0 0 .057 0 .114l.172.343c.057.114.057.171.057.171 0 .057.057.057.057.057.114-.057-.114-.228.17-.343l.457-.228c.115-.057.115-.057.172.057s.057.171-.057.286l-.343.4c-.114.114-.228.285-.171.457.057.114.171.228.228.171 0 0 .057-.057 0-.057l-.057-.057s-.057-.057 0-.114l.57-.686s.058.057.172.057c.114.057.228.057.4 0 .228-.057.57-.286.342-.8m-.456.572c-.17.057-.285.114-.456-.229-.057-.057-.057-.171 0-.171L40 19.6c.172-.057.172 0 .229.057.114.229 0 .457-.286.572m1.884 4.8c-.114 0 0 .285-.342.228l-1.312-.114c-.343-.057-.229-.229-.343-.229-.057 0-.057.057-.057.057v.4c0 .115-.057.172-.057.229s0 .057.057.057c.114 0 0-.228.342-.228l.514.057c.114 0 .114 0 .114.114s-.057.171-.171.229l-.514.171c-.17.057-.399.114-.399.343 0 .114.057.286.114.286 0 0 .057 0 .057-.058v-.057s0-.057.057-.114c.4-.171.856-.286.856-.286.057 0 .057.057.114.172.057.057.172.171.343.171.114 0 .57 0 .627-.514 0-.172 0-.343.058-.514-.058-.229-.058-.229-.058-.4m-.17.685c0 .229-.229.343-.571.343-.172 0-.343-.057-.286-.4 0-.057 0-.171.114-.171l.571.057c.171.057.171.114.171.171m-27.39-7.143c-.057-.057-.057.115-.286.115l-1.825-.229h-.115s0 .057.057.114L13.24 20c.114.114.057.229.057.286.057 0 .057 0 .057-.057.057-.058.057-.115.114-.172s.057-.114.114-.171c0-.057.057-.115 0-.115-.057-.057-.171.229-.342.115l-.171-.172c-.115-.114-.115-.171-.115-.228l.229-.457c.057-.058.057-.058.285 0 .057 0 .114 0 .171.057.171.057.057.228.114.285.057 0 .057 0 .057-.057.057-.057.057-.171.114-.228.057-.172.115-.172.172-.286.228-.171.228-.171.17-.229m-1.141.4-.172.286c0 .057-.057.057-.057.057-.057 0-.057-.057-.057-.057l-.342-.4V18.8h.057l.514.057h.114c0 .057 0 .057-.057.114" clip-rule="evenodd"/><path fill="#111" d="M34.238 18.4H17.062v9.371c0 4.172.228 7.6 3.424 10.8 1.883 1.886 3.138 2.8 5.25 4.229l.114.114.228.172.228-.172a30 30 0 0 1 1.77-1.371c1.14-.8 2.11-1.543 3.366-3.029 3.024-3.6 3.538-6.343 3.538-10.743V18.4zm-3.424 19.657c-1.198 1.429-2.111 2.114-3.195 2.857-.571.4-.913.629-1.598 1.2-1.997-1.371-3.253-2.228-5.022-4.057-2.967-3.028-3.195-6.171-3.195-10.286v-8.628h16.434v8.628c0 4.343-.514 6.858-3.424 10.286"/><path fill="#111" fill-rule="evenodd" d="m44.053 9.2-.285-.514-.286.857.171.343zM22.711 5.771c.171.686-.456.515-.4.743 0 .115.115.115.172.115.171-.058.342-.115.628-.172.342-.057.456-.057.684-.114.114-.057.229-.057.229-.172-.057-.171-.571.115-.742-.571l-.57-2.629c-.058-.285 0-.342.17-.342l.4-.058c.513-.114.513.572.685.515.114 0 0-.229 0-.286l-.172-.514c0-.057-.057-.115-.114-.115-.456.115-.742.172-1.426.343-.685.172-1.027.172-1.427.286-.057 0-.057.114-.057.171l.114.8c0 .058 0 .229.114.172.229-.057-.114-.8.457-.914l.4-.115c.17-.057.227 0 .285.286zM16.434 8c.343.629-.285.629-.171.857.057.114.114.057.228.057.172-.114.286-.171.57-.343.286-.171.457-.171.629-.285.114-.057.228-.115.17-.229-.056-.171-.513.286-.855-.343l-1.255-2.4c-.115-.228-.115-.285.056-.4l.343-.171c.456-.286.628.4.799.286.114-.058-.057-.229-.114-.286l-.286-.457c-.057-.057-.057-.115-.114-.115-.4.229-.685.4-1.312.686-.628.343-.913.457-1.313.629-.057.057 0 .114 0 .171l.286.743c0 .057.057.229.17.171.172-.114-.285-.742.172-.971l.342-.171c.172-.115.229-.115.343.171zm7.076 37.143-.57.057.627.629.4-.058z" clip-rule="evenodd"/><path fill="#111" d="M68.99 4.571c.228.058.399.058.627.058.171 0 .343-.058.457-.058-.114 1.486-.228 4.229-.285 6.515-.058 2.8-1.655 4.514-4.451 4.514-3.082 0-4.508-1.429-4.508-4.514 0-.972.057-1.715.057-2.457 0-1.715-.057-3.143-.114-4.058.228.058.57.058.798.058s.457-.058.685-.058c-.114.915-.171 3.086-.171 5.372 0 2.114 0 4.914 3.48 4.914 3.425 0 3.425-3.2 3.425-5.2.057-2.971.057-4.457 0-5.086M82.913 15.6c-2.397-2.8-5.25-5.829-7.932-8.686 0 .572-.057 1.543-.057 3.2 0 1.372.057 4.686.114 5.315-.17-.058-.342-.058-.57-.058-.172 0-.4.058-.571.058.114-.743.342-4.743.342-6.8 0-2 0-3.486-.057-4.229h.229c2.567 2.8 6.048 6.571 7.931 8.514 0-2.8 0-5.885-.114-8.285.171.057.343.057.514.057s.342-.057.513-.057c-.114.914-.228 4.057-.228 5.257 0 1.6.057 5.085.057 5.771h-.171zm4.565-6.971c0-1.372-.057-2.686-.114-4.058.285.058.513.058.742.058s.513-.058.742-.058c-.058 1.372-.114 2.743-.114 4.058v2.685c0 1.372.056 2.686.114 4.057-.286-.057-.514-.057-.742-.057s-.514.057-.742.057c.057-1.371.114-2.685.114-4.057zm4.052-4.058c.285.058.57.058.799.058.285 0 .57-.058.798-.058.913 2.8 2.283 6.115 3.595 9.258 1.142-2.515 2.91-7.2 3.538-9.258.171.058.4.058.571.058s.399-.058.571-.058c-1.655 3.6-3.139 7.2-4.508 10.858-.172-.058-.343-.058-.514-.058s-.4.058-.514.058C95.01 12.8 93.07 8.17 91.53 4.57m12.668 4.059c0-1.372-.057-2.686-.115-4.058.913.058 1.884.058 2.797.058s1.883-.058 2.796-.058c-.057.172-.057.343-.057.458 0 .171 0 .285.057.457-1.313-.115-2.112-.229-4.109-.229 0 .686-.057 1.2-.057 2v2.057c1.826 0 2.91-.057 3.823-.171-.057.171-.057.343-.057.514 0 .172 0 .286.057.457C108.249 10 106.252 10 105.51 10v2.286c0 1.2 0 1.943.057 2.343 1.37 0 3.253 0 4.223-.229-.057.171-.057.343-.057.514 0 .115 0 .286.057.457-.913-.057-1.883-.057-2.796-.057-.97 0-1.883.057-2.853.057.057-1.371.114-2.742.114-4.057V8.63zm8.844 0c0-1.372-.057-2.686-.114-4.058.571.058 1.199.058 1.769.058.571 0 1.199-.058 1.769-.058 1.769 0 3.253.629 3.253 2.458 0 2-1.997 2.857-3.196 2.971.742.971 3.367 4.343 4.28 5.371-.285-.057-.628-.057-.97-.057-.285 0-.628.057-.913.057-.628-.971-2.739-3.828-4.051-5.2h-.571v1.143c0 1.372.057 2.686.114 4.057-.285-.057-.514-.057-.742-.057s-.513.057-.742.057c.057-1.371.114-2.685.114-4.057zm1.256.914c.285.057.628.057 1.027.057 1.312 0 2.967-.514 2.967-2.4 0-1.657-1.369-2.057-2.453-2.057-.742 0-1.199.057-1.541.057-.057 1.143-.114 2.286-.114 3.429v.914zm9.016 3.771c.342.743 1.141 1.657 2.454 1.657 1.369 0 2.225-1.028 2.225-2.285 0-2.915-4.964-1.657-4.964-5.315 0-1.771 1.312-2.971 3.423-2.971.97 0 1.712.229 2.34.743-.171.343-.285.743-.4 1.314h-.171c-.228-.571-.684-1.486-1.883-1.486s-1.997.8-1.997 1.943c0 2.915 4.907 1.715 4.907 5.2 0 1.943-1.426 3.543-3.823 3.543-1.312 0-2.054-.457-2.568-.914.172-.457.229-.8.286-1.372h.171zm9.472-4.685c0-1.372-.057-2.686-.114-4.058.286.058.514.058.742.058s.514-.058.742-.058c-.057 1.372-.114 2.743-.114 4.058v2.685c0 1.372.057 2.686.114 4.057-.285-.057-.514-.057-.742-.057s-.514.057-.742.057c.057-1.371.114-2.685.114-4.057zM60.83 24.686c0-1.372-.058-2.686-.115-4.057.514.057 1.027.057 1.541.057s1.484-.057 1.94-.057c.913 0 3.424.057 3.424 2.628 0 2.743-2.739 3.314-4.223 3.314-.456 0-.856 0-1.255-.057v.857c0 1.372.057 2.686.114 4.058-.285-.058-.514-.058-.742-.058s-.513.058-.742.058c.058-1.372.115-2.686.115-4.058v-2.685zm1.312 1.143a7 7 0 0 0 1.141.114c1.256 0 2.91-.514 2.91-2.629 0-1.771-1.027-2.171-2.624-2.171h-1.427zM75.21 20.4c3.48 0 5.877 2.057 5.877 5.6s-2.397 5.6-5.877 5.6c-3.424 0-5.878-2.057-5.878-5.6.057-3.543 2.454-5.6 5.878-5.6m0 .571c-2.454 0-4.337 1.543-4.337 5.029s1.883 5.029 4.337 5.029 4.336-1.543 4.336-5.029-1.826-5.029-4.337-5.029m8.503 3.715c0-1.372-.057-2.686-.114-4.057.285.057.513.057.742.057s.513-.057.741-.057c-.057 1.371-.114 2.742-.114 4.057 0 2.628.057 4.514.057 6.057 1.484 0 2.74 0 4.337-.229-.057.172-.057.343-.057.457 0 .172.057.343.057.458-.97-.058-1.94-.058-2.91-.058s-1.94.058-2.91.058c.057-1.372.114-2.686.114-4.058v-2.685zm8.502 0c0-1.372-.057-2.686-.114-4.057.285.057.514.057.742.057s.514-.057.742-.057c-.057 1.371-.114 2.742-.114 4.057v2.685c0 1.372.057 2.686.114 4.058-.285-.058-.514-.058-.742-.058s-.513.058-.742.058c.057-1.372.114-2.686.114-4.058zm7.362 0c0-1.086 0-2.172-.058-3.257-1.084 0-2.453.057-3.366.171.057-.171.057-.343.057-.514 0-.172-.057-.286-.057-.515 1.37.058 2.682.058 4.051.058s2.682-.058 4.052-.058c-.057.172-.057.343-.057.515s.057.343.057.514c-.856-.114-2.283-.171-3.367-.171-.057 1.085-.057 2.171-.057 3.257v2.685c0 1.372.057 2.686.114 4.058-.285-.058-.514-.058-.742-.058s-.513.058-.742.058c.058-1.372.115-2.686.115-4.058zm23.795 6.057c-.4.343-1.712.914-3.253.914-3.309 0-5.706-2.057-5.706-5.6s2.397-5.6 5.877-5.6c1.37 0 2.568.343 3.424.743-.171.286-.285.914-.342 1.2l-.114.057c-.457-.457-1.484-1.371-2.968-1.371-2.453 0-4.336 1.543-4.336 5.028 0 3.486 1.883 5.029 4.336 5.029 1.484 0 2.568-.857 3.196-1.314l.057.057zm11.869.857c-2.397-2.8-5.25-5.829-7.932-8.686 0 .572-.057 1.543-.057 3.2 0 1.372.057 4.686.114 5.315-.171-.058-.342-.058-.57-.058-.171 0-.4 0-.571.058.114-.743.342-4.743.342-6.8 0-2 0-3.486-.057-4.229h.229c2.567 2.8 6.048 6.571 7.931 8.514 0-2.8 0-5.885-.114-8.285.172.057.343.057.514.057s.342-.057.513-.057c-.114.914-.228 4.057-.228 5.257 0 1.6.057 5.085.057 5.771h-.171zm3.823-6.914c0-1.372-.057-2.686-.114-4.057.286.057.514.057.742.057s.514-.057.742-.057c-.057 1.371-.114 2.742-.114 4.057v2.685c0 1.372.057 2.686.114 4.058-.285-.058-.514-.058-.742-.058s-.514.058-.742.058c.057-1.372.114-2.686.114-4.058zm13.182 6.057c-.399.343-1.712.914-3.253.914-3.309 0-5.706-2.057-5.706-5.6s2.397-5.6 5.878-5.6c1.369 0 2.567.343 3.423.743-.171.286-.285.914-.342 1.2l-.114.057c-.457-.457-1.484-1.371-2.967-1.371-2.454 0-4.337 1.543-4.337 5.028 0 3.486 1.883 5.029 4.337 5.029 1.483 0 2.567-.857 3.195-1.314l.057.057zM61 40.686a94 94 0 0 0-.113-4.057c.798.057 1.597.057 2.34.057.798 0 1.597-.057 2.339-.057 3.652 0 5.192 1.942 5.192 5.2 0 4.171-3.252 5.657-5.706 5.657-.685 0-1.37-.057-2.111-.057-.685 0-1.37.057-2.111.057.057-1.372.114-2.686.114-4.057v-2.743zm1.256 2.685c0 1.086.057 2.229.114 3.315.457.114 1.256.171 2.054.171 2.283 0 4.794-.914 4.794-5.028 0-3.658-1.883-4.515-4.451-4.515-.913 0-1.77.057-2.397.172a58 58 0 0 0-.114 3.257zm10.443-2.742c0-1.372-.057-2.743-.114-4.058.97.058 1.883.058 2.796.058.97 0 1.883-.058 2.796-.058-.057.172-.057.343-.057.458 0 .171 0 .342.057.457-1.313-.115-2.112-.229-4.109-.229 0 .686-.057 1.2-.057 2v2.057c1.826 0 2.91-.057 3.823-.171-.057.171-.057.343-.057.514 0 .172 0 .343.057.457-1.084-.114-3.081-.171-3.823-.171v2.286c0 1.2 0 1.942.057 2.342 1.37 0 3.253 0 4.223-.228-.057.114-.057.343-.057.457 0 .171 0 .343.057.457-.913-.057-1.883-.057-2.796-.057-.97 0-1.883.057-2.853.057.057-1.371.114-2.743.114-4.057v-2.571zm15.749-4c.286.057.57.057.8.057.284 0 .57-.057.798-.057.913 2.8 2.225 6.114 3.595 9.257 1.141-2.515 2.91-7.2 3.538-9.257.171.057.4.057.57.057.172 0 .4-.057.571-.057-1.655 3.6-3.138 7.2-4.508 10.857-.171-.057-.342-.057-.513-.057-.172 0-.4 0-.514.057-.913-2.629-2.853-7.257-4.337-10.857m21.855 4.057c0-1.372-.057-2.743-.114-4.057.286.057.514.057.742.057s.514-.057.742-.057c-.057 1.371-.114 2.742-.114 4.057 0 2.628.057 4.514.057 6.057 1.484 0 2.739 0 4.337-.229-.057.172-.057.286-.057.457s.057.343.057.458c-.97-.058-1.94-.058-2.911-.058-.97 0-1.94.058-2.91.058.057-1.372.114-2.686.114-4.058v-2.685zm25.565 6.971c-2.397-2.8-5.25-5.828-7.932-8.686 0 .572-.057 1.543-.057 3.2 0 1.372.057 4.686.114 5.315-.171-.057-.342-.057-.571-.057-.171 0-.399.057-.57.057.114-.743.342-4.743.342-6.8 0-2 0-3.486-.057-4.229h.228c2.568 2.8 6.049 6.572 7.932 8.514 0-2.8 0-5.885-.114-8.285.171.057.342.057.514.057s.342-.057.513-.057c-.114.914-.228 4.057-.228 5.257 0 1.6.057 5.086.057 5.771h-.171zm11.698-.914c-.4.286-1.712.914-3.253.914-3.31 0-5.706-2.057-5.706-5.6s2.396-5.6 5.877-5.6c1.37 0 2.568.343 3.424.743-.171.286-.285.914-.342 1.2l-.114.057c-.457-.514-1.484-1.371-2.968-1.371-2.453 0-4.336 1.543-4.336 5.028 0 3.486 1.883 5.029 4.336 5.029 1.484 0 2.568-.857 3.196-1.314l.057.057zm2.739-6.057c0-1.372-.057-2.743-.114-4.057.285.057.513.057.742.057s.513-.057.741-.057c-.057 1.371-.114 2.742-.114 4.057v2.685c0 1.372.057 2.686.114 4.058-.285-.058-.513-.058-.741-.058-.229 0-.514.058-.742.058.057-1.372.114-2.686.114-4.058zm6.049-10.629c0-.686.57-1.257 1.255-1.257s1.255.571 1.255 1.257-.57 1.257-1.255 1.257a1.267 1.267 0 0 1-1.255-1.257"/><path fill="#111" d="m160.633 27.086-1.94-4.686-1.997 4.686c-.685 1.6-1.255 3.2-1.541 4.228-.228-.057-.399-.057-.57-.057-.172 0-.4.057-.571.057 1.655-3.657 3.31-7.314 4.907-11.028h.286c1.54 3.657 3.88 9.371 4.736 11.028-.285-.057-.571-.057-.799-.057-.285 0-.571.057-.856.057-.342-1.085-1.084-2.857-1.655-4.228m-4.222 19.028c0-.685.57-1.257 1.255-1.257s1.255.572 1.255 1.257c0 .686-.57 1.257-1.255 1.257-.685-.057-1.255-.571-1.255-1.257"/><path fill="#111" d="m160.69 43.086-1.94-4.686-1.997 4.686c-.685 1.6-1.255 3.2-1.541 4.228-.228-.057-.399-.057-.57-.057-.172 0-.4.057-.571.057 1.655-3.657 3.31-7.314 4.907-11.028h.286c1.54 3.657 3.88 9.371 4.736 11.028-.285-.057-.571-.057-.856-.057s-.571.057-.856.057c-.285-1.085-1.084-2.8-1.598-4.228m-60.03 3.028c0-.685.57-1.257 1.255-1.257s1.256.572 1.256 1.257c0 .686-.571 1.257-1.256 1.257-.685-.057-1.255-.571-1.255-1.257"/><path fill="#111" d="m104.939 43.086-1.94-4.686-1.997 4.686c-.685 1.6-1.255 3.2-1.54 4.228-.229-.057-.4-.057-.571-.057s-.4.057-.57.057c1.654-3.657 3.309-7.314 4.907-11.028h.285c1.541 3.657 3.88 9.371 4.736 11.028-.285-.057-.57-.057-.856-.057-.285 0-.57.057-.856.057-.285-1.085-1.027-2.8-1.598-4.228M140.262 8.8c0-1.086 0-2.171-.057-3.257-1.085 0-2.454.057-3.367.171.057-.171.057-.343.057-.514s-.057-.286-.057-.514c1.369.057 2.682.057 4.051.057s2.682-.057 4.052-.057c-.057.171-.057.343-.057.514s.057.343.057.514c-.856-.114-2.283-.171-3.367-.171-.057 1.086-.057 2.171-.057 3.257v2.686c0 1.371.057 2.685.114 4.057-.285-.057-.513-.057-.742-.057s-.513.057-.741.057c.057-1.372.114-2.743.114-4.057zm18.945 0c0-1.086 0-2.171-.057-3.257-1.085 0-2.454.057-3.367.171.057-.171.057-.343.057-.514s-.057-.286-.057-.514c1.369.057 2.682.057 4.051.057s2.682-.057 4.052-.057c-.057.171-.057.343-.057.514s.057.343.057.514c-.856-.114-2.283-.171-3.367-.171-.057 1.086-.057 2.171-.057 3.257v2.686c0 1.371.057 2.685.114 4.057-.285-.057-.513-.057-.742-.057s-.513.057-.741.057c.057-1.372.114-2.743.114-4.057z"/><path fill="#111" fill-rule="evenodd" d="m122.572 35.714-1.997-2c-.171-.171-.4-.4-.628-.571-.057-.057-.114-.057-.228-.114-.285-.058-.571.057-.628.342-.057.172-.057.286 0 .4.114.172.228.229.4.343l2.51 1.543h.571zm-2.682 1.657h1.198l1.598.058c.457.057.97.057 1.427.171 0-.171-.057-.343-.057-.457 0-.172.057-.286.057-.457h-5.65v10.8h5.764c0-.172-.057-.343-.057-.457 0-.172.057-.286.057-.458-.514.058-.97.115-1.484.172-.97.057-1.883.114-2.853.057v-4.629h2.454c.456 0 .913.058 1.426.058 0-.172-.057-.343-.057-.458 0-.171.057-.285.057-.4-.456 0-.913.058-1.426.058h-2.454zm-9.301-17.6-1.997-2c-.172-.171-.4-.4-.628-.571-.057-.057-.114-.057-.228-.114-.286-.057-.571.057-.628.343a.63.63 0 0 0 0 .457c.114.171.228.228.399.343l2.511 1.542zm-2.625 1.658h1.198l1.598.057a6 6 0 0 1 1.427.171c0-.171-.058-.343-.058-.457 0-.171.058-.286.058-.457h-5.65v10.686h5.707c0-.172-.057-.343-.057-.458 0-.171.057-.285.057-.457-.514.057-.971.115-1.484.115-.97.057-1.883.114-2.853.057v-4.629h2.453c.457 0 .971.057 1.427.057 0-.171-.057-.343-.057-.457 0-.171.057-.286.057-.4-.456 0-.913.057-1.427.057h-2.453V21.43z" clip-rule="evenodd"/><path fill="#111" d="M147.908 14.114c0-.685.571-1.257 1.256-1.257.684 0 1.255.572 1.255 1.257 0 .686-.571 1.257-1.255 1.257-.742-.057-1.256-.571-1.256-1.257m2.283-9.714h.342l4.508 10.457.285.572c-.285-.058-.57-.058-.799-.058-.285 0-.57 0-.855.058l-.115-.458-.741-1.885-.799-1.886-1.998-4.743-2.054 4.743c-.57 1.371-1.141 2.8-1.541 4.229-.171-.058-.342-.058-.57-.058-.171 0-.4 0-.571.058z"/></svg>